<!-- Generator: Adobe Illustrator 19.0.0, SVG Export Plug-In . SVG Version: 6.00 Build 0)  -->
<svg version="1.1" id="Layer_1" xmlns="http://www.w3.org/2000/svg" xmlns:xlink="http://www.w3.org/1999/xlink" x="0px" y="0px"
	 viewBox="0 0 841.9 595.3" style="enable-background:new 0 0 841.9 595.3;" xml:space="preserve">
<style type="text/css">
	.st0{fill:#F15A22;}
	.st1{fill:#ED1C24;}
	.st2{fill:#B72467;}
	.st3{fill:#662D91;}
	.st4{fill:#524FA1;}
	.st5{fill:#00ADDC;}
	.st6{fill:#6DC8BF;}
</style>
<path class="st1" d="M233.3,315.7c71.3-56.1,126.4-126.8,199.5-178.7c70.7-50.3,141.7-60.7,228-63.8
	c170.7-6.2,210.4,245.8,118,360.6C673.2,565,427,532,277.9,549.8c-59.7,7.1-160.9,21.6-172.1-58.9C94.2,406.9,175.5,354,233.3,315.7
	C262.2,293,219.5,324.8,233.3,315.7z"/>
<path class="st2" d="M377.9,242.6c41.1-40.9,92.4-118.9,150.3-135.7c49.8-14.4,131.5,5.6,183.8,8.8c63.3,3.8,58.7,20.9,72,80.8
	c11.5,51.5,18.2,129.7-4.6,181.2c-53.1,120-253.2,125.4-363.4,120.1c-66-3.2-94-6.1-100.6-81.8C309.3,347.5,329.9,289.9,377.9,242.6
	C416.1,204.6,357.9,262.3,377.9,242.6z"/>
<path class="st3" d="M425.3,220.7c52.7-37.5,254.4-155.9,277.8-27.7c25.9,142.1-183.4-15-144.4,119.7c14.9,51.5,30,81.3-26.1,116.8
	c-37.6,23.8-103,43.7-145.1,27.6C278.4,415.3,364.1,265.5,425.3,220.7C459.1,196.7,385.8,249.6,425.3,220.7z"/>
<path class="st3" d="M680.6,290.7c-74.8-7.5-124,137.4-31.3,143.4C740.7,440.1,800.3,302.6,680.6,290.7z"/>
<path class="st4" d="M662.2,317c-41.9,15.2-33.6,92.2,16.2,90.6C748.3,405.4,744.4,287.2,662.2,317z"/>
<path class="st5" d="M683.2,325.5c-12.6-3.3-24.8,6-25.2,19c-0.7,22.4,14.9,40.7,42,25.1C731.4,351.4,707.9,332,683.2,325.5z"/>
<path class="st4" d="M409.3,257.8c-115.1,60.3,9.6,261.7,116.1,156.4c29.7-29.4,29.8-99.4,16.7-137
	C519.1,211.1,460.2,231.1,409.3,257.8z"/>
<path class="st4" d="M617.5,243.7c79.1-15,40.9-109.3-28.7-82.6c-1.1,0.4-2.2,1.1-3,2C569.9,178.9,542.8,257.9,617.5,243.7z"/>
<path class="st5" d="M602.6,193.2c-2.3-1.1-5.1-1.1-7.4,0.1c-12.2,5.9-26.1,9.4-22.7,25.2c2,9.4,21.4,19.5,32,19.4
	C635.5,237.7,626.7,204.6,602.6,193.2z"/>
<path class="st6" d="M578.7,218.7c1.7,2.1,3.7,4,6.4,5.6c4.1,2.4,8.9-0.9,9.2-6.3c0.5-9.9-3.1-12.2-9.7-12.8
	C578.4,204.7,574.6,213.3,578.7,218.7z"/>
<path class="st5" d="M414.5,274.9c5.8-7.6,15.2-11.5,24.7-10.2c38.2,5.1,57.2,29.8,76.4,66c18.3,34.4,18.2,83.9-28.6,91
	c-42.6,6.5-91.9-2.9-97.3-48.9C384.8,330.9,391.2,305.4,414.5,274.9z"/>
</svg>
